<svg width="1120" height="430" viewBox="0 0 1120 430" fill="none" xmlns="http://www.w3.org/2000/svg" role="img" aria-labelledby="title desc">
  <title id="title">Council Skill</title>
  <desc id="desc">Compact Council Skill README header with logo, title, subtitle, and short explanation.</desc>
  <defs>
    <linearGradient id="hero" x1="24" y1="18" x2="1096" y2="318" gradientUnits="userSpaceOnUse">
      <stop stop-color="#FBFDFF"/>
      <stop offset="0.58" stop-color="#F6F9FD"/>
      <stop offset="1" stop-color="#EEF4FA"/>
    </linearGradient>
    <linearGradient id="logoDark" x1="130" y1="58" x2="230" y2="230" gradientUnits="userSpaceOnUse">
      <stop stop-color="#071C3C"/>
      <stop offset="1" stop-color="#082653"/>
    </linearGradient>
    <linearGradient id="logoLight" x1="84" y1="88" x2="278" y2="194" gradientUnits="userSpaceOnUse">
      <stop stop-color="#6F86A9"/>
      <stop offset="1" stop-color="#A6B7D0"/>
    </linearGradient>
    <radialGradient id="glow" cx="0" cy="0" r="1" gradientUnits="userSpaceOnUse" gradientTransform="translate(468 150) rotate(15) scale(520 210)">
      <stop stop-color="#FFFFFF"/>
      <stop offset="0.72" stop-color="#FFFFFF" stop-opacity="0.76"/>
      <stop offset="1" stop-color="#EDF3F9" stop-opacity="0"/>
    </radialGradient>
    <pattern id="dots" x="0" y="0" width="12" height="12" patternUnits="userSpaceOnUse">
      <circle cx="2" cy="2" r="1" fill="#D2DCE8" opacity="0.72"/>
    </pattern>
    <filter id="logoShadow" x="88" y="44" width="210" height="210" filterUnits="userSpaceOnUse" color-interpolation-filters="sRGB">
      <feFlood flood-opacity="0" result="BackgroundImageFix"/>
      <feColorMatrix in="SourceAlpha" type="matrix" values="0 0 0 0 0 0 0 0 0 0 0 0 0 0 0 0 0 0 127 0" result="hardAlpha"/>
      <feOffset dy="8"/>
      <feGaussianBlur stdDeviation="10"/>
      <feColorMatrix type="matrix" values="0 0 0 0 0.11 0 0 0 0 0.18 0 0 0 0 0.28 0 0 0 0.12 0"/>
      <feBlend mode="normal" in2="BackgroundImageFix" result="effect1_dropShadow"/>
      <feBlend mode="normal" in="SourceGraphic" in2="effect1_dropShadow" result="shape"/>
    </filter>
  </defs>

  <rect width="1120" height="430" fill="#FFFFFF"/>

  <rect x="20" y="16" width="1080" height="300" rx="14" fill="url(#hero)"/>
  <rect x="20" y="16" width="218" height="300" rx="14" fill="url(#dots)" opacity="0.42"/>
  <rect x="900" y="16" width="200" height="300" rx="14" fill="url(#dots)" opacity="0.16"/>
  <rect x="20" y="16" width="1080" height="300" rx="14" fill="url(#glow)"/>
  <rect x="20.5" y="16.5" width="1079" height="299" rx="13.5" stroke="#DCE5EF" stroke-opacity="0.36"/>

  <path d="M136 16L282 162L136 308L-8 162" stroke="#E7EDF5" stroke-width="1.2" opacity="0.35"/>
  <path d="M826 50C900 8 1000 34 1048 110C1090 177 1068 260 1000 300" stroke="#D6E0EC" stroke-width="1.5" opacity="0.34"/>
  <path d="M906 42V276H1030" stroke="#D6E0EC" stroke-width="1.5" opacity="0.22"/>
  <path d="M820 52L1058 290" stroke="#E5EBF3" stroke-width="1" opacity="0.32"/>

  <g id="logoMark" filter="url(#logoShadow)">
    <circle cx="178" cy="76" r="18" fill="url(#logoDark)"/>
    <circle cx="178" cy="232" r="18" fill="url(#logoDark)"/>
    <circle cx="92" cy="154" r="18" fill="#7890B2"/>
    <circle cx="264" cy="154" r="18" fill="#8CA2BE"/>
    <path d="M156 102C170 111 186 111 200 102L229 130C212 148 197 164 191 177C183 172 173 172 165 177C159 164 144 148 127 130L156 102Z" fill="url(#logoDark)"/>
    <path d="M156 206C170 197 186 197 200 206L229 178C212 160 197 144 191 131C183 136 173 136 165 131C159 144 144 160 127 178L156 206Z" fill="url(#logoDark)"/>
    <path d="M117 112C129 126 142 139 151 153C142 168 129 181 117 196L91 170C103 160 103 148 91 138L117 112Z" fill="url(#logoLight)"/>
    <path d="M239 112C227 126 214 139 205 153C214 168 227 181 239 196L265 170C253 160 253 148 265 138L239 112Z" fill="url(#logoLight)"/>
    <circle cx="178" cy="154" r="30" fill="#FFFFFF"/>
    <circle cx="178" cy="154" r="22" fill="#C9D3E1"/>
    <circle cx="178" cy="154" r="12" fill="#FFFFFF"/>
  </g>

  <text x="342" y="118" fill="#0B1324" font-family="Inter, Segoe UI, Arial, sans-serif" font-size="70" font-weight="800" letter-spacing="-2">Council Skill</text>
  <text x="342" y="176" fill="#526177" font-family="Inter, Segoe UI, Arial, sans-serif" font-size="36" font-weight="700">Expert review before coding</text>
  <text x="342" y="222" fill="#6E7A8E" font-family="Inter, Segoe UI, Arial, sans-serif" font-size="25" font-weight="500">For Codex, Claude Code, and AI coding agents</text>

  <text x="80" y="363" fill="#111827" font-family="Inter, Segoe UI, Arial, sans-serif" font-size="20" font-weight="800">Council Skill is a reusable skill that brings four expert perspectives together before code is written.</text>
  <text x="80" y="395" fill="#111827" font-family="Inter, Segoe UI, Arial, sans-serif" font-size="20" font-weight="600">It helps AI agents slow down, challenge assumptions, and produce a concrete implementation plan.</text>
</svg>
