<svg width="1200" height="420" viewBox="0 0 1200 420" fill="none" xmlns="http://www.w3.org/2000/svg" role="img" aria-labelledby="title desc">
  <title id="title">Council Skill</title>
  <desc id="desc">Minimal hero artwork for the Council Skill README.</desc>
  <defs>
    <linearGradient id="bg" x1="0" y1="0" x2="1200" y2="420" gradientUnits="userSpaceOnUse">
      <stop stop-color="#F8FAFC"/>
      <stop offset="0.55" stop-color="#F1F5F9"/>
      <stop offset="1" stop-color="#EAF0F7"/>
    </linearGradient>
    <linearGradient id="ink" x1="216" y1="100" x2="314" y2="246" gradientUnits="userSpaceOnUse">
      <stop stop-color="#0F172A"/>
      <stop offset="1" stop-color="#64748B"/>
    </linearGradient>
    <pattern id="dots" width="24" height="24" patternUnits="userSpaceOnUse">
      <circle cx="2" cy="2" r="1.2" fill="#CBD5E1" opacity="0.55"/>
    </pattern>
    <filter id="softShadow" x="-20%" y="-20%" width="140%" height="140%" color-interpolation-filters="sRGB">
      <feDropShadow dx="0" dy="16" stdDeviation="18" flood-color="#0F172A" flood-opacity="0.10"/>
    </filter>
  </defs>

  <rect x="16" y="16" width="1168" height="388" rx="32" fill="url(#bg)"/>
  <rect x="16.5" y="16.5" width="1167" height="387" rx="31.5" stroke="#CBD5E1" stroke-opacity="0.75"/>
  <rect x="40" y="40" width="250" height="320" fill="url(#dots)" opacity="0.65"/>
  <rect x="930" y="42" width="210" height="304" fill="url(#dots)" opacity="0.32"/>
  <path d="M934 114C1007 68 1102 89 1149 162C1196 235 1174 332 1102 379" stroke="#CBD5E1" stroke-width="2" opacity="0.55"/>
  <path d="M1035 88V310H1143" stroke="#CBD5E1" stroke-width="2" opacity="0.50"/>
  <path d="M940 314C1017 314 1074 258 1074 181" stroke="#CBD5E1" stroke-width="2" opacity="0.50"/>

  <g filter="url(#softShadow)">
    <circle cx="230" cy="112" r="18" fill="#0F172A"/>
    <circle cx="160" cy="208" r="18" fill="#7C8DA8"/>
    <circle cx="300" cy="208" r="18" fill="#7C8DA8"/>
    <circle cx="230" cy="298" r="18" fill="#334155"/>
    <path d="M230 132L282 192L230 252L178 192L230 132Z" fill="url(#ink)"/>
    <path d="M230 151L262 190L230 229L198 190L230 151Z" fill="#EEF2F7" opacity="0.92"/>
    <circle cx="230" cy="192" r="30" fill="#CBD5E1"/>
    <circle cx="230" cy="192" r="13" fill="#FFFFFF"/>
    <path d="M230 132C204 151 189 171 178 192C196 196 211 204 230 222C249 204 264 196 282 192C271 171 256 151 230 132Z" fill="#0F172A" opacity="0.92"/>
    <path d="M177 192C185 224 200 246 230 252C222 231 206 211 177 192Z" fill="#64748B"/>
    <path d="M283 192C275 224 260 246 230 252C238 231 254 211 283 192Z" fill="#94A3B8"/>
  </g>

  <text x="382" y="150" font-family="Inter, ui-sans-serif, system-ui, -apple-system, BlinkMacSystemFont, Segoe UI, sans-serif" font-size="72" font-weight="800" fill="#0F172A" letter-spacing="-2.4">Council Skill</text>
  <text x="386" y="205" font-family="Inter, ui-sans-serif, system-ui, -apple-system, BlinkMacSystemFont, Segoe UI, sans-serif" font-size="35" font-weight="650" fill="#475569">Expert review before coding</text>
  <text x="386" y="248" font-family="Inter, ui-sans-serif, system-ui, -apple-system, BlinkMacSystemFont, Segoe UI, sans-serif" font-size="22" font-weight="450" fill="#64748B">For Codex, Claude Code, and AI coding agents</text>

  <g font-family="Inter, ui-sans-serif, system-ui, -apple-system, BlinkMacSystemFont, Segoe UI, sans-serif" font-size="18" font-weight="650">
    <rect x="386" y="291" width="136" height="58" rx="16" fill="#FFFFFF" stroke="#CBD5E1"/>
    <path d="M419 317H449M424 317V310H444V317M422 317V335H446V317" stroke="#475569" stroke-width="2.4" stroke-linecap="round" stroke-linejoin="round"/>
    <text x="461" y="329" fill="#334155">Product</text>

    <rect x="544" y="291" width="96" height="58" rx="16" fill="#FFFFFF" stroke="#BBF7D0"/>
    <circle cx="574" cy="315" r="8" stroke="#15803D" stroke-width="2.4"/>
    <path d="M558 337C561 326 588 326 591 337" stroke="#15803D" stroke-width="2.4" stroke-linecap="round"/>
    <text x="602" y="329" fill="#166534">UX</text>

    <rect x="662" y="291" width="174" height="58" rx="16" fill="#FFFFFF" stroke="#DDD6FE"/>
    <path d="M694 312L717 323L694 334L671 323L694 312Z" stroke="#5B21B6" stroke-width="2.4" stroke-linejoin="round"/>
    <path d="M674 337L694 347L714 337" stroke="#5B21B6" stroke-width="2.4" stroke-linecap="round" stroke-linejoin="round"/>
    <text x="728" y="329" fill="#3B0764">Architecture</text>

    <rect x="858" y="291" width="135" height="58" rx="16" fill="#FFFFFF" stroke="#FDE68A"/>
    <path d="M891 311L909 319V331C909 341 899 348 891 351C883 348 873 341 873 331V319L891 311Z" stroke="#A16207" stroke-width="2.4" stroke-linejoin="round"/>
    <text x="923" y="329" fill="#854D0E">QA/Ops</text>
  </g>
</svg>
