<svg width="1200" height="380" viewBox="0 0 1200 380" fill="none" xmlns="http://www.w3.org/2000/svg" role="img" aria-labelledby="title desc">
  <title id="title">Council Skill</title>
  <desc id="desc">Minimal hero artwork for the Council Skill README.</desc>
  <defs>
    <linearGradient id="bg" x1="0" y1="0" x2="1200" y2="380" gradientUnits="userSpaceOnUse">
      <stop stop-color="#FBFCFE"/>
      <stop offset="0.58" stop-color="#F8FAFD"/>
      <stop offset="1" stop-color="#F3F7FB"/>
    </linearGradient>
    <radialGradient id="softGlow" cx="0" cy="0" r="1" gradientUnits="userSpaceOnUse" gradientTransform="translate(468 174) rotate(19) scale(560 260)">
      <stop stop-color="#FFFFFF"/>
      <stop offset="0.82" stop-color="#FFFFFF" stop-opacity="0.55"/>
      <stop offset="1" stop-color="#EAF1F8" stop-opacity="0"/>
    </radialGradient>
    <linearGradient id="sideLeft" x1="89" y1="150" x2="180" y2="238" gradientUnits="userSpaceOnUse">
      <stop stop-color="#7389A7"/>
      <stop offset="1" stop-color="#9AAAC0"/>
    </linearGradient>
    <linearGradient id="sideRight" x1="288" y1="151" x2="198" y2="239" gradientUnits="userSpaceOnUse">
      <stop stop-color="#8EA0BA"/>
      <stop offset="1" stop-color="#C3CEDC"/>
    </linearGradient>
    <linearGradient id="bottomPanel" x1="188" y1="188" x2="188" y2="266" gradientUnits="userSpaceOnUse">
      <stop stop-color="#7F90A9"/>
      <stop offset="1" stop-color="#5E708B"/>
    </linearGradient>
    <linearGradient id="topPanel" x1="188" y1="112" x2="188" y2="211" gradientUnits="userSpaceOnUse">
      <stop stop-color="#071225"/>
      <stop offset="1" stop-color="#25334A"/>
    </linearGradient>
    <pattern id="dots" width="18" height="18" patternUnits="userSpaceOnUse">
      <circle cx="2" cy="2" r="0.95" fill="#D6DEE9" opacity="0.46"/>
    </pattern>
  </defs>

  <rect width="1200" height="380" rx="16" fill="url(#bg)"/>
  <rect x="0.5" y="0.5" width="1199" height="379" rx="15.5" stroke="#D9E2EC" stroke-opacity="0.20"/>
  <rect width="1200" height="380" rx="16" fill="url(#softGlow)"/>

  <rect x="23" y="28" width="220" height="305" fill="url(#dots)" opacity="0.36"/>
  <rect x="1040" y="28" width="132" height="300" fill="url(#dots)" opacity="0.18"/>
  <path d="M112 0L244 132" stroke="#E9EEF5" stroke-width="1" opacity="0.30"/>
  <path d="M938 58C1009 18 1098 36 1142 102C1184 166 1167 255 1104 315" stroke="#D7E0EB" stroke-width="1.5" opacity="0.18"/>
  <path d="M1058 48V286H1160" stroke="#D7E0EB" stroke-width="1.5" opacity="0.16"/>
  <path d="M940 283C1015 282 1078 225 1078 153" stroke="#D7E0EB" stroke-width="1.5" opacity="0.14"/>

  <g aria-hidden="true">
    <circle cx="188" cy="84" r="20" fill="#0A1426"/>
    <circle cx="88" cy="190" r="19" fill="#8192AD"/>
    <circle cx="288" cy="190" r="19" fill="#8798B2"/>
    <circle cx="188" cy="300" r="20" fill="#25354D"/>

    <path d="M188 114L244 168L210 207L188 190L166 207L132 168L188 114Z" fill="url(#topPanel)"/>
    <path d="M84 207L128 160L170 185L149 225L104 249L84 207Z" fill="url(#sideLeft)"/>
    <path d="M292 207L248 160L206 185L227 225L272 249L292 207Z" fill="url(#sideRight)"/>
    <path d="M188 266L132 214L166 190L188 208L210 190L244 214L188 266Z" fill="url(#bottomPanel)"/>

    <path d="M188 166V214" stroke="#F8FAFC" stroke-width="8" stroke-linecap="round" opacity="0.92"/>
    <path d="M164 190H212" stroke="#F8FAFC" stroke-width="8" stroke-linecap="round" opacity="0.92"/>
    <circle cx="188" cy="190" r="18" fill="#D8E1EB"/>
    <circle cx="188" cy="190" r="10" fill="#FFFFFF"/>
    <circle cx="188" cy="190" r="4.8" fill="#C5D0DE"/>
  </g>

  <text x="348" y="124" font-family="Inter, ui-sans-serif, system-ui, -apple-system, BlinkMacSystemFont, Segoe UI, sans-serif" font-size="76" font-weight="800" fill="#0B1426" letter-spacing="-2.8">Council Skill</text>
  <text x="351" y="178" font-family="Inter, ui-sans-serif, system-ui, -apple-system, BlinkMacSystemFont, Segoe UI, sans-serif" font-size="34" font-weight="650" fill="#53637A">Expert review before coding</text>
  <text x="351" y="222" font-family="Inter, ui-sans-serif, system-ui, -apple-system, BlinkMacSystemFont, Segoe UI, sans-serif" font-size="23" font-weight="450" fill="#728096">For Codex, Claude Code, and AI coding agents</text>

  <g font-family="Inter, ui-sans-serif, system-ui, -apple-system, BlinkMacSystemFont, Segoe UI, sans-serif" font-size="17" font-weight="650">
    <rect x="350" y="270" width="154" height="52" rx="11" fill="#FFFFFF" fill-opacity="0.74" stroke="#CBD5E1" stroke-opacity="0.84"/>
    <path d="M378 293H406M383 293V286H401V293M381 293V309H403V293" stroke="#53637A" stroke-width="2.1" stroke-linecap="round" stroke-linejoin="round"/>
    <text x="425" y="297" dominant-baseline="middle" fill="#334155">Product</text>

    <rect x="532" y="270" width="118" height="52" rx="11" fill="#FFFFFF" fill-opacity="0.74" stroke="#BBE7CE" stroke-opacity="0.88"/>
    <circle cx="562" cy="292" r="7.4" stroke="#2D8050" stroke-width="2.1"/>
    <path d="M545 313C548 303 576 303 579 313" stroke="#2D8050" stroke-width="2.1" stroke-linecap="round"/>
    <text x="598" y="297" dominant-baseline="middle" fill="#2D6A48">UX</text>

    <rect x="678" y="270" width="222" height="52" rx="11" fill="#FFFFFF" fill-opacity="0.74" stroke="#DCD4F4" stroke-opacity="0.9"/>
    <path d="M710 290L735 302L710 314L685 302L710 290Z" stroke="#5C4896" stroke-width="2.1" stroke-linejoin="round"/>
    <path d="M690 317L710 327L730 317" stroke="#5C4896" stroke-width="2.1" stroke-linecap="round" stroke-linejoin="round"/>
    <text x="752" y="297" dominant-baseline="middle" fill="#34215D">Architecture</text>

    <rect x="928" y="270" width="162" height="52" rx="11" fill="#FFFFFF" fill-opacity="0.74" stroke="#F0DCAB" stroke-opacity="0.9"/>
    <path d="M959 289L977 297V310C977 319 967 326 959 329C951 326 941 319 941 310V297L959 289Z" stroke="#A06A16" stroke-width="2.1" stroke-linejoin="round"/>
    <text x="996" y="297" dominant-baseline="middle" fill="#80500E">QA/Ops</text>
  </g>
</svg>
